<?xml version="1.0" encoding="UTF-8"?>
<svg width="255" height="255" version="1.1" viewBox="0 0 67.5 67.5" xmlns="http://www.w3.org/2000/svg" xmlns:cc="http://creativecommons.org/ns#" xmlns:dc="http://purl.org/dc/elements/1.1/" xmlns:rdf="http://www.w3.org/1999/02/22-rdf-syntax-ns#">
 <metadata>
  <rdf:RDF>
   <cc:Work rdf:about="">
    <dc:format>image/svg+xml</dc:format>
    <dc:type rdf:resource="http://purl.org/dc/dcmitype/StillImage"/>
    <dc:title/>
   </cc:Work>
  </rdf:RDF>
 </metadata>
 <g>
  <rect width="67.5" height="67.5" fill="#2b2b2b" stroke-width=".8"/>
  <g transform="matrix(.836 0 0 .836 5.55 5.55)" stroke-width=".572" aria-label="hasty gram">
   <g fill="#5085b3">
    <path d="m18 29.1v-6.33c0-2.36-1.01-3.29-3.34-3.29-2.29 0-3.34 1.58-3.66 2.22h-0.0229v-6.27c0-0.732-0.16-1.1-1.1-1.1h-0.846c-0.823 0-1.1 0.252-1.1 1.1v13.7c0 0.823 0.252 1.1 1.1 1.1h0.915c0.869 0 1.1-0.297 1.1-1.1v-5.05c0-1.99 1.33-2.93 2.52-2.93 1.1 0 1.33 0.526 1.33 1.69v6.29c0 0.732 0.16 1.1 1.1 1.1h0.915c0.869 0 1.1-0.297 1.1-1.1z"/>
    <path d="m30.2 29.1v-6.13c0-3.61-3.48-3.64-4.62-3.64-1.07 0-2.22 0.0915-3.75 0.732-0.48 0.206-0.595 0.274-0.595 0.526 0 0.16 0.137 1.49 0.16 1.67 0.0229 0.137 0.137 0.252 0.297 0.252 0.114 0 0.183-0.0686 0.252-0.137 0.983-1.03 2.13-1.53 3.54-1.53 1.23 0 1.6 0.755 1.6 2.1v0.8c-0.8 0-6.79 0.0457-6.79 3.41 0 1.6 1.28 3.29 3.29 3.29 0.777 0 2.49-0.229 3.57-1.81v0.457c0 0.732 0.16 1.1 1.1 1.1h0.846c0.869 0 1.1-0.297 1.1-1.1zm-3.11-2.42c0 2.13-2.17 2.13-2.24 2.13-0.96 0-1.58-0.823-1.58-1.69 0-2.24 3.18-2.4 3.82-2.42z"/>
    <path d="m40.4 27c0-1.28-0.686-2.08-1.1-2.45-0.915-0.823-1.72-0.96-2.68-1.14-1.26-0.229-2.17-0.412-2.17-1.3 0-0.938 0.755-1.12 1.65-1.12 1.53 0 2.36 0.572 2.95 1.07 0.229 0.229 0.274 0.229 0.366 0.229 0.229 0 0.274-0.206 0.297-0.297 0.0457-0.183 0.274-1.46 0.274-1.58 0-0.366-1.21-0.686-1.46-0.777-0.915-0.252-1.65-0.274-2.24-0.274-1.03 0-4.09 0-4.09 3.27 0 1.12 0.503 1.81 1.12 2.36 0.8 0.732 1.69 0.892 3 1.14 0.663 0.114 1.83 0.32 1.83 1.33 0 1.07-0.892 1.23-1.78 1.23-1.01 0-2.29-0.297-3.36-1.58-0.114-0.114-0.183-0.183-0.32-0.183-0.229 0-0.274 0.206-0.297 0.343-0.0457 0.32-0.32 1.62-0.32 1.85 0 0.412 1.72 0.96 1.72 0.96 1.26 0.389 2.2 0.389 2.58 0.389 1.17 0 4.05-0.0915 4.05-3.48z"/>
    <path d="m49.5 29.1c0-0.0686-0.0457-0.229-0.183-0.709-0.114-0.457-0.16-0.595-0.366-0.595-0.114 0-0.137 0.0229-0.274 0.16-0.252 0.183-0.869 0.686-1.83 0.686-0.549 0-0.892-0.389-0.892-1.9v-5.4h2.04c0.274 0 1.1 0 1.1-0.823s-0.823-0.823-1.1-0.823h-2.04v-1.9c0-0.732-0.16-1.1-1.1-1.1h-0.709c-0.823 0-1.1 0.252-1.1 1.1v1.9h-0.526c-0.252 0-1.1 0-1.1 0.823s0.823 0.823 1.1 0.823h0.457v5.79c0 2.31 0.823 3.29 2.4 3.29 0.206 0 1.21 0 2.4-0.366 0.389-0.114 1.72-0.526 1.72-0.96z"/>
    <path d="m60.4 20.4c0-0.617-0.617-0.617-0.915-0.617h-0.503c-0.366 0-0.869 0-1.21 0.526-0.0686 0.114-1.92 5.17-2.04 6.7h-0.0229c-0.114-1.12-1.05-3.25-2.04-5.44-0.64-1.44-0.8-1.78-1.94-1.78h-0.595c-0.32 0-0.892 0-0.892 0.595 0 0.0915 0.0686 0.252 0.114 0.366l4.32 9.51c-0.183 0.48-0.252 0.732-0.32 0.96-0.274 0.755-0.663 1.78-1.9 1.78-0.755 0-1.28-0.32-1.53-0.48-0.114-0.0686-0.16-0.0915-0.229-0.0915-0.114 0-0.297 0.0686-0.297 0.343 0 0.183 0.137 1.76 0.206 1.85 0.206 0.274 1.44 0.32 1.81 0.32 2.84 0 3.96-2.7 4.14-3.25l3.73-10.8c0.114-0.297 0.114-0.343 0.114-0.457z"/>
   </g>
   <g fill="#eee">
    <path d="m18.7 39.2c0-0.0915-0.114-0.64-0.16-0.869-0.0915-0.549-0.0915-0.595-0.503-0.595-0.709 0-1.85 0.274-2.72 0.8-1.07-0.709-2.26-0.8-3.25-0.8-0.96 0-4.6 0-4.6 3.77 0 0.915 0.252 2.06 1.12 2.81-0.617 0.846-0.617 1.74-0.617 1.85 0 0.434 0.137 1.19 0.617 1.81-0.343 0.137-1.53 0.549-1.53 2.01 0 0.709 0.343 1.9 1.78 2.56 1.3 0.595 2.84 0.617 3.91 0.617 1.35 0 5.72 0 5.72-3.25 0-3.57-3.22-3.57-6.31-3.57h-1.1c-0.823 0-1.14 0-1.46-0.274-0.0915-0.0915-0.48-0.434-0.48-1.03 0-0.16 0.0229-0.206 0.0457-0.343 1.07 0.595 2.42 0.595 2.9 0.595 0.96 0 4.6 0 4.6-3.77 0-1.33-0.503-2.13-0.709-2.38 0.389 0 1.19 0 2.13 0.252 0.0915 0.0457 0.252 0.0915 0.32 0.0915 0.183 0 0.297-0.137 0.297-0.297zm-4.96 2.31c0 1.26-0.0686 2.15-1.67 2.15-1.6 0-1.67-0.869-1.67-2.13s0.0686-2.15 1.67-2.15c1.6 0 1.67 0.869 1.67 2.13zm2.38 8.48c0 1.53-2.61 1.53-3.34 1.53-0.915 0-3.36 0-3.36-1.6 0-1.07 0.709-1.07 1.23-1.07h2.65c1.85 0 2.81 0.32 2.81 1.14z"/>
    <path d="m27.9 39.4v-1.07c0-0.457 0-0.617-0.412-0.617-0.64 0-2.31 0.229-3.38 2.7h-0.0229v-1.49c0-0.732-0.16-1.1-1.1-1.1h-0.732c-0.823 0-1.1 0.252-1.1 1.1v8.42c0 0.823 0.252 1.1 1.1 1.1h0.846c0.869 0 1.1-0.297 1.1-1.1v-4.16c0-2.17 1.81-3.06 3.25-3.16 0.412-0.0229 0.457-0.0229 0.457-0.617z"/>
    <path d="m39.8 47.3v-6.13c0-3.61-3.48-3.64-4.62-3.64-1.07 0-2.22 0.0915-3.75 0.732-0.48 0.206-0.595 0.274-0.595 0.526 0 0.16 0.137 1.49 0.16 1.67 0.0229 0.137 0.137 0.252 0.297 0.252 0.114 0 0.183-0.0686 0.252-0.137 0.983-1.03 2.13-1.53 3.54-1.53 1.23 0 1.6 0.755 1.6 2.1v0.8c-0.8 0-6.79 0.0457-6.79 3.41 0 1.6 1.28 3.29 3.29 3.29 0.777 0 2.49-0.229 3.57-1.81v0.457c0 0.732 0.16 1.1 1.1 1.1h0.846c0.869 0 1.1-0.297 1.1-1.1zm-3.11-2.42c0 2.13-2.17 2.13-2.24 2.13-0.96 0-1.58-0.823-1.58-1.69 0-2.24 3.18-2.4 3.82-2.42z"/>
    <path d="m60.1 47.3v-6.33c0-2.36-1.01-3.29-3.34-3.29-1.62 0-2.88 0.755-3.7 2.26-0.366-2.2-2.31-2.26-3.27-2.26-0.434 0-1.39 0-2.42 0.755-0.709 0.526-1.17 1.26-1.33 1.6h-0.0229v-1.14c0-0.732-0.16-1.1-1.1-1.1h-0.777c-0.823 0-1.1 0.252-1.1 1.1v8.42c0 0.823 0.252 1.1 1.1 1.1h0.915c0.869 0 1.1-0.297 1.1-1.1v-5.05c0-2.06 1.39-2.93 2.52-2.93 1.1 0 1.35 0.48 1.35 1.69v6.29c0 0.823 0.252 1.1 1.1 1.1h0.915c0.869 0 1.1-0.297 1.1-1.1v-5.05c0-2.06 1.39-2.93 2.52-2.93 1.1 0 1.35 0.48 1.35 1.69v6.29c0 0.823 0.252 1.1 1.1 1.1h0.915c0.869 0 1.1-0.297 1.1-1.1z"/>
   </g>
  </g>
 </g>
</svg>
